<svg xmlns="http://www.w3.org/2000/svg" viewBox="0 0 57.26 63.09" fill="currentColor"><path d="M1.1,0h0c-.29,0-.57.12-.78.32-.21.2-.32.48-.32.78v60.78c0,.6.49,1.1,1.1,1.1l55.06.12h0c.29,0,.57-.12.78-.32.21-.21.32-.49.32-.78V1.21c0-.61-.49-1.1-1.1-1.1L1.1,0ZM55.06,60.89l-52.86-.11V2.2l52.86.11v58.58Z"/><path d="M17.77,22.31c1.43,0,2.77-.55,3.78-1.56,1.01-1.01,1.57-2.35,1.57-3.78,0-1.43-.55-2.78-1.56-3.79-1.01-1.01-2.35-1.57-3.78-1.57h0c-2.95,0-5.35,2.4-5.35,5.34,0,1.43.55,2.78,1.56,3.79,1.01,1.01,2.35,1.57,3.78,1.57h0ZM14.61,16.95c0-1.74,1.42-3.15,3.16-3.15h0c.84,0,1.63.33,2.23.93.6.6.92,1.39.92,2.23,0,.84-.33,1.63-.93,2.23-.6.6-1.39.92-2.23.92h0c-.84,0-1.63-.33-2.23-.92-.6-.6-.92-1.39-.92-2.23Z"/><path d="M7.14,47.37h43.04c.61,0,1.1-.49,1.1-1.1V7.07c0-.61-.49-1.1-1.1-1.1H7.08c-.61,0-1.1.49-1.1,1.1v38.91c0,.14.03.26.07.38.05.56.52,1,1.09,1ZM49.09,44.88v.29H8.24v-7.26l6.82-8.43,8.28,7.04c.23.2.53.29.83.26.3-.03.57-.19.76-.42l11.27-14.79,12.89,12.51v10.82ZM8.18,8.17h40.91v22.82l-12.25-11.88c-.23-.22-.53-.33-.85-.31-.31.02-.6.18-.79.43l-11.32,14.85-8.25-7.02c-.23-.19-.52-.28-.82-.26-.29.03-.57.17-.75.4l-5.88,7.27V8.17Z"/></svg>
