<svg xmlns="http://www.w3.org/2000/svg" viewBox="0 0 65.76 63.15" fill="currentColor"><path d="M62.9,59.9h-23.95c2.59-2.66,5.18-5.32,7.77-7.97.14,0,.26-.04.38-.08.02,0,.03-.01.05-.02.01,0,.02,0,.03-.01.25-.1.48-.3.61-.63,5.12-12.28,10.23-24.55,15.35-36.83.73-1.74,1.45-3.48,2.18-5.22.06-.12.09-.23.1-.34,1-3.29-.32-6.91-3.66-8.3-3.31-1.38-7.26.24-8.64,3.56-5.12,12.28-10.23,24.56-15.35,36.83-.73,1.74-1.45,3.48-2.18,5.22-.18.43-.07.93.23,1.27-.02.99-.03,1.98-.05,2.97,0,.47-.02.94-.02,1.41-.05,2.72-.09,5.43-.14,8.15H1.27c-1.7,0-1.7,3.25,0,3.25h61.63c1.7,0,1.7-3.25,0-3.25ZM63.38,7.02c-2.48-1.03-4.96-2.06-7.44-3.1,2.4-3.16,7.78-.89,7.44,3.1ZM53.17,10.19c.57-1.38,1.15-2.75,1.72-4.12,2.59,1.08,5.19,2.16,7.78,3.24-4.96,11.91-9.92,23.82-14.89,35.73-.57,1.37-1.14,2.75-1.72,4.12-2.59-1.08-5.19-2.16-7.78-3.24,4.96-11.91,9.93-23.82,14.89-35.73ZM38.2,48.98c1.92.8,3.83,1.6,5.75,2.4-1.1,1.13-2.2,2.26-3.31,3.39-.84-.35-1.68-.7-2.52-1.05.03-1.58.05-3.15.08-4.73Z"/></svg>
