<svg xmlns="http://www.w3.org/2000/svg" viewBox="0 0 58.83 48.17" fill="currentColor"><path d="M.75,43.89c-.41,0-.75.34-.75.75v2.78c0,.41.33.75.75.75h57.33c.41,0,.75-.34.75-.75v-2.78c0-.41-.33-.75-.75-.75h-2.39v-1.66h2.39c.41,0,.75-.34.75-.75v-2.72c0-.41-.33-.75-.75-.75h-6.33V10.15h6.33c.41,0,.75-.34.75-.75v-2.78c0-.41-.33-.75-.75-.75h-2.39v-1.66h2.39c.41,0,.75-.33.75-.75V.75c0-.41-.33-.75-.75-.75H.75c-.41,0-.75.33-.75.75v2.72c0,.41.33.75.75.75h2.03v1.66H.75c-.41,0-.75.33-.75.75v2.78c0,.41.33.75.75.75h5.61v27.86H.75c-.41,0-.75.34-.75.75v2.72c0,.41.33.75.75.75h2.03v1.66H.75ZM1.5,8.65v-1.28h2.03c.41,0,.75-.33.75-.75v-3.16c0-.41-.34-.75-.75-.75H1.5v-1.22h55.84v1.22h-2.39c-.42,0-.75.34-.75.75v3.16c0,.41.33.75.75.75h2.39v1.28h-6.19s-.09-.03-.14-.03h-4.51s-.09.02-.13.03H12.29s-.09-.03-.13-.03h-5.05s-.09.02-.14.03H1.5ZM50.26,10.13v27.54h-3.01V10.13h3.01ZM45.75,10.15v27.86H13.09V10.15h32.66ZM11.41,10.13v27.54h-3.55V10.13h3.55ZM3.53,40.73H1.5v-1.22h55.84v1.22h-2.39c-.42,0-.75.34-.75.75v3.16c0,.41.33.75.75.75h2.39v1.28H1.5v-1.28h2.03c.41,0,.75-.34.75-.75v-3.16c0-.41-.34-.75-.75-.75Z"/><path d="M12.66,7.38c.41,0,.75-.33.75-.75v-3.16c0-.41-.33-.75-.75-.75h-5.55c-.41,0-.75.34-.75.75v3.16c0,.41.34.75.75.75h5.55ZM7.86,4.22h4.06v1.66h-4.06v-1.66Z"/><path d="M16.61,7.38h5.55c.41,0,.75-.33.75-.75v-3.16c0-.41-.34-.75-.75-.75h-5.55c-.41,0-.75.34-.75.75v3.16c0,.41.33.75.75.75ZM17.36,4.22h4.05v1.66h-4.05v-1.66Z"/><path d="M26.46,7.38h5.55c.42,0,.75-.33.75-.75v-3.16c0-.41-.33-.75-.75-.75h-5.55c-.41,0-.75.34-.75.75v3.16c0,.41.34.75.75.75ZM27.21,4.22h4.05v1.66h-4.05v-1.66Z"/><path d="M35.96,7.38h5.55c.41,0,.75-.33.75-.75v-3.16c0-.41-.34-.75-.75-.75h-5.55c-.41,0-.75.34-.75.75v3.16c0,.41.33.75.75.75ZM36.71,4.22h4.06v1.66h-4.06v-1.66Z"/><path d="M45.45,7.38h5.55c.41,0,.75-.33.75-.75v-3.16c0-.41-.33-.75-.75-.75h-5.55c-.42,0-.75.34-.75.75v3.16c0,.41.33.75.75.75ZM46.2,4.22h4.06v1.66h-4.06v-1.66Z"/><path d="M26.46,45.39h5.55c.42,0,.75-.34.75-.75v-3.16c0-.41-.33-.75-.75-.75h-5.55c-.41,0-.75.34-.75.75v3.16c0,.41.34.75.75.75ZM27.21,42.23h4.05v1.66h-4.05v-1.66Z"/><path d="M45.45,45.39h5.55c.41,0,.75-.34.75-.75v-3.16c0-.41-.33-.75-.75-.75h-5.55c-.42,0-.75.34-.75.75v3.16c0,.41.33.75.75.75ZM46.2,42.23h4.06v1.66h-4.06v-1.66Z"/><path d="M35.96,45.39h5.55c.41,0,.75-.34.75-.75v-3.16c0-.41-.34-.75-.75-.75h-5.55c-.41,0-.75.34-.75.75v3.16c0,.41.33.75.75.75ZM36.71,42.23h4.06v1.66h-4.06v-1.66Z"/><path d="M16.61,45.39h5.55c.41,0,.75-.34.75-.75v-3.16c0-.41-.34-.75-.75-.75h-5.55c-.41,0-.75.34-.75.75v3.16c0,.41.33.75.75.75ZM17.36,42.23h4.05v1.66h-4.05v-1.66Z"/><path d="M7.11,45.39h5.55c.41,0,.75-.34.75-.75v-3.16c0-.41-.33-.75-.75-.75h-5.55c-.41,0-.75.34-.75.75v3.16c0,.41.34.75.75.75ZM7.86,42.23h4.06v1.66h-4.06v-1.66Z"/></svg>
