<svg xmlns="http://www.w3.org/2000/svg" viewBox="0 0 64.61 64.54" fill="currentColor"><path d="M30.57,64.53h3.1c17.36-.72,30.93-14.86,30.93-32.25S51.03.74,33.68.01h-3.07s-.02,0-.03.01C13.42.93,0,15.07,0,32.28s13.42,31.35,30.57,32.25ZM11.07,53.16c2.05-1.49,4.27-2.76,6.61-3.8,2.22,4.64,5.31,8.74,9.2,12.21-5.97-1.11-11.51-4.05-15.8-8.42ZM31.05,61.78c-4.73-3.55-8.53-8.15-11.05-13.35,3.54-1.29,7.26-2.02,11.05-2.2v15.55ZM31.05,43.73c-4.15.18-8.2.98-12.06,2.41-1.47-3.67-2.34-7.55-2.58-11.55h14.64s0,9.14,0,9.14ZM31.05,32.08h-14.72c.02-4.1.7-8.11,2.01-11.94,4.06,1.6,8.33,2.5,12.71,2.69v9.25ZM37.31,61.65c4.07-3.61,7.26-7.88,9.51-12.74,2.51,1.02,4.9,2.32,7.11,3.86-4.45,4.69-10.29,7.81-16.61,8.88ZM55.57,50.88c-2.41-1.71-5.03-3.15-7.8-4.27,1.48-3.83,2.35-7.87,2.58-12.04h11.66c-.46,5.99-2.68,11.61-6.44,16.31ZM56.51,14.9c3.63,5.03,5.56,10.95,5.6,17.16h-11.68c-.02-4.25-.71-8.42-2.04-12.42,2.88-1.25,5.61-2.84,8.12-4.74ZM54.96,12.94c-2.31,1.74-4.81,3.21-7.44,4.36-2.23-5.47-5.74-10.41-10.22-14.4,6.88,1.16,13.09,4.69,17.66,10.04ZM33.55,3.04c5.21,4,9.22,9.23,11.65,15.18-3.75,1.34-7.66,2.06-11.65,2.14V3.04ZM33.55,22.86c4.28-.08,8.48-.86,12.51-2.3,1.22,3.71,1.85,7.58,1.87,11.51h-14.38s0-9.21,0-9.21ZM33.55,34.58h14.3c-.23,3.86-1.04,7.61-2.42,11.16-3.82-1.28-7.82-1.96-11.88-2.04v-9.12ZM33.55,46.2c3.73.08,7.39.7,10.9,1.85-2.46,5.23-6.21,9.86-10.9,13.47v-15.32ZM31.05,2.78v17.56c-4.07-.19-8.04-1.04-11.81-2.53,2.5-5.91,6.57-11.09,11.81-15.03ZM26.88,2.98c-4.3,3.85-7.71,8.59-9.93,13.83-2.45-1.17-4.78-2.61-6.93-4.3C14.45,7.52,20.38,4.18,26.88,2.98ZM8.44,14.45c2.36,1.86,4.91,3.43,7.6,4.7-1.44,4.14-2.19,8.49-2.21,12.94H2.5c.04-6.41,2.09-12.5,5.94-17.64ZM2.59,34.59h11.32c.24,4.32,1.17,8.52,2.76,12.48-2.59,1.14-5.03,2.56-7.29,4.22-3.98-4.78-6.32-10.53-6.79-16.7Z"/></svg>
