<svg xmlns="http://www.w3.org/2000/svg" viewBox="0 0 59.23 57.57" fill="currentColor"><path d="M19.93,36.04c-.23,5.29.52,10.23,4.59,14.1.35.33.66.71.92,1.12,1.04,1.59.78,3.29-.69,4.5-1.28,1.05-2.8,1.5-4.41,1.71-1.63.21-3.23.09-4.8-.4-1.84-.59-3.19-1.72-4-3.5-1.14-2.48-1.86-5.1-2.35-7.76-.55-2.99-.96-6.02-1.44-9.02-.04-.25-.08-.49-.13-.79-.52,0-1.02-.04-1.52,0-2.16.19-3.68-.78-4.73-2.59-.75-1.3-1.06-2.74-1.22-4.21-.2-1.87-.25-3.73.17-5.59.86-3.82,3.71-6.27,7.64-6.41,2.27-.08,4.54,0,6.81,0,2.06,0,4.13-.08,6.18.02,4.68.21,8.8-1.31,12.6-3.9,3.06-2.09,5.7-4.65,8.26-7.3,1.15-1.2,2.3-2.4,3.48-3.57.6-.59,1.24-1.15,1.92-1.63,2.23-1.55,4.53-.83,5.47,1.71.63,1.71.64,3.49.6,5.29-.07,3.09-.05,6.18-.04,9.27,0,.15.18.37.33.44,3.67,1.73,5.23,4.8,5.59,8.66.23,2.51-.23,4.81-1.89,6.79-.97,1.15-2.16,2.01-3.54,2.58-.41.17-.51.38-.51.79.01,4,.03,7.99-.01,11.99,0,.87-.14,1.78-.42,2.59-.96,2.77-4.19,3.7-6.4,1.78-1.21-1.05-2.22-2.35-3.24-3.6-3.86-4.71-8.41-8.58-13.88-11.32-2.92-1.46-6.01-2.12-9.34-1.76ZM23.37,33.92c2.14.2,4.11.77,5.99,1.63,6.15,2.84,11.19,7.08,15.45,12.3.9,1.1,1.81,2.22,2.85,3.2,1.13,1.07,2.69.62,3.16-.86.23-.72.31-1.53.31-2.29.02-12.95.01-25.91.01-38.86,0-1.07.12-2.15.02-3.21-.08-.97-.28-1.96-.61-2.87-.32-.91-1.07-1.09-1.9-.58-.46.29-.91.62-1.29,1-1.33,1.31-2.65,2.64-3.95,3.99-2.82,2.92-5.73,5.76-9.15,7.99-3.12,2.04-6.46,3.5-10.22,3.83-.56.05-.73.22-.73.79.02,4.42.01,8.83.01,13.25,0,.21.02.41.03.69ZM21.21,33.86v-14.56c-.25,0-.46,0-.67,0-3.91-.02-7.82-.04-11.73-.06-3.18-.02-5.46,1.44-6.25,4.18-.8,2.76-.63,5.54.32,8.24.62,1.75,1.5,2.26,3.34,2.2.17,0,.34,0,.5,0,4.56,0,9.13,0,13.69,0,.25,0,.5,0,.79,0ZM9.81,36.01c0,.18-.01.29,0,.39.56,3.4,1.07,6.8,1.7,10.19.4,2.17,1.04,4.28,2.03,6.28.36.74.86,1.37,1.6,1.73,2.64,1.27,5.29,1.2,7.87-.17,1.16-.62,1.23-1.4.39-2.42-.07-.08-.14-.16-.21-.23-3.65-3.51-5.27-7.86-5.33-12.85-.01-.96,0-1.92,0-2.91h-8.04ZM53.47,19.67c-.06.06-.12.11-.19.17v13.61c1.79-.88,3.11-2.13,3.56-4.01.68-2.83.25-5.53-1.48-7.92-.51-.71-1.26-1.24-1.9-1.85Z"/></svg>
