<svg xmlns="http://www.w3.org/2000/svg" viewBox="0 0 60.6 40.21" fill="currentColor"><path d="M.3,35.21c.19.2.46.31.75.31h16.85c-.2,1.12-.33,2.32-.35,3.62,0,.28.11.55.3.75.2.2.47.31.75.31h23.22c.57,0,1.03-.45,1.05-1.02,0-.15.04-1.63-.27-3.67h16.95c.57,0,1.03-.45,1.05-1.02.01-.36.23-8.86-5.1-13.75-.37-.35-.94-.37-1.35-.06-.06.05-6.26,4.71-12.04,0-.4-.32-.96-.31-1.35.02-.12.11-1.82,1.62-3.29,4.53-.34-.15-.75-.11-1.06.13-.25.19-6.29,4.69-12.04,0-.28-.23-.65-.29-.98-.18-.74-1.59-1.76-3.15-3.18-4.45-.37-.35-.94-.37-1.35-.06-.06.05-6.26,4.71-12.04,0-.4-.32-.97-.31-1.35.02C5.26,20.91.13,25.47,0,34.46c0,.28.1.55.3.75ZM41.55,22.91c5.49,3.83,11.08,1.17,13.09-.04,3.12,3.35,3.72,8.41,3.83,10.55h-16.3c-.53-2.14-1.47-4.55-3.12-6.59.87-1.9,1.88-3.22,2.5-3.92ZM23.82,27.59c5.49,3.83,11.09,1.17,13.09-.04,3.12,3.35,3.72,8.41,3.83,10.55h-21.06c.37-5.64,2.96-9.17,4.14-10.51ZM6.27,22.91c5.49,3.83,11.09,1.17,13.09-.04,1.08,1.16,1.85,2.52,2.41,3.89-1.04,1.29-2.49,3.51-3.4,6.66H2.14c.37-5.64,2.96-9.18,4.13-10.51Z"/><path d="M12.66,19.86h0c2.65,0,5.14-1.03,7.02-2.91.26-.26.5-.53.73-.82.73,4.76,4.84,8.41,9.8,8.41h0c2.65,0,5.14-1.04,7.02-2.91,1.57-1.57,2.53-3.56,2.82-5.71,1.81,2.39,4.67,3.94,7.9,3.94h0c2.65,0,5.14-1.03,7.02-2.91,1.88-1.88,2.91-4.37,2.91-7.02,0-5.47-4.46-9.93-9.93-9.93-2.65,0-5.14,1.04-7.02,2.91-1.57,1.57-2.53,3.56-2.81,5.71-1.82-2.39-4.68-3.94-7.9-3.94-2.65,0-5.14,1.04-7.02,2.91-.26.26-.5.53-.72.82C21.72,3.66,17.61,0,12.66,0c-2.65,0-5.14,1.04-7.02,2.91-1.88,1.88-2.91,4.37-2.91,7.02,0,5.47,4.45,9.92,9.93,9.92ZM42.4,4.4c1.48-1.48,3.45-2.3,5.54-2.3,4.31,0,7.83,3.51,7.83,7.83,0,2.09-.81,4.05-2.3,5.54-1.48,1.48-3.44,2.3-5.53,2.3h0c-4.32,0-7.83-3.51-7.83-7.83,0-2.09.82-4.05,2.3-5.54ZM24.67,9.08c1.48-1.48,3.45-2.3,5.54-2.3,4.32,0,7.83,3.51,7.83,7.83,0,2.09-.81,4.05-2.3,5.54-1.48,1.48-3.44,2.3-5.53,2.3h0c-4.32,0-7.83-3.51-7.83-7.83,0-2.09.81-4.05,2.3-5.54ZM7.12,4.4c1.48-1.48,3.45-2.3,5.54-2.3,4.32,0,7.83,3.51,7.83,7.83,0,2.09-.81,4.05-2.3,5.54-1.48,1.48-3.44,2.3-5.53,2.3h0c-4.32,0-7.83-3.51-7.83-7.83,0-2.09.81-4.05,2.3-5.54Z"/></svg>
