<svg xmlns="http://www.w3.org/2000/svg" viewBox="0 0 60.03 60.63" fill="currentColor"><path d="M0,51.49c0,5.93,14.61,9.13,28.34,9.13s28.35-3.2,28.35-9.13c0-3.62-5.45-6.22-12.82-7.7l1.37-1.12c3.05-2.5,4.81-6.21,4.81-10.17,0-1.5-.26-2.99-.78-4.43.16.02.31.03.45.02.97.02,1.99-.34,2.79-1l2.72-2.22c.35-.29.68-.59.99-.9,2.46-2.47,3.81-5.77,3.81-9.27,0-3.02-1.05-5.96-2.95-8.29-.01-.01-.02-.03-.03-.04l-1.28-1.56c-2.5-3.05-6.21-4.81-10.17-4.81-3.02,0-5.98,1.06-8.31,2.97l-9.92,8.13c-3.05,2.5-4.81,6.21-4.8,10.17,0,1.51.26,2.99.78,4.43-.14-.01-.3-.02-.46-.03-1.01,0-2,.35-2.79,1l-2.71,2.22c-3.05,2.5-4.81,6.21-4.81,10.17,0,1.58.3,3.14.85,4.61-7.67,1.46-13.41,4.1-13.41,7.82ZM18.72,30.53l2.71-2.22c.41-.33.92-.52,1.42-.52.19,0,.35.02.49.05.67.14,1.37-.1,1.8-.62.44-.52.56-1.25.31-1.89-.52-1.31-.79-2.68-.79-4.06,0-3.32,1.47-6.43,4.03-8.53l9.92-8.13c1.96-1.61,4.44-2.49,6.97-2.49,3.32,0,6.43,1.47,8.53,4.03l1.27,1.54s0,.01.01.02c0,0,0,.01.01.02,1.61,1.96,2.49,4.43,2.49,6.97,0,2.94-1.14,5.71-3.19,7.78-.26.26-.54.52-.84.76l-2.71,2.22c-.42.34-.94.53-1.42.52-.02,0-.05,0-.07,0-.11,0-.26-.01-.43-.05-.67-.14-1.37.1-1.8.62-.45.53-.56,1.25-.31,1.89.52,1.32.79,2.69.78,4.07,0,3.32-1.47,6.43-4.03,8.53l-9.92,8.12c-1.96,1.61-4.44,2.49-6.98,2.49-3.32,0-6.43-1.47-8.53-4.03l-1.29-1.58c-1.61-1.96-2.49-4.44-2.49-6.97,0-3.32,1.47-6.43,4.03-8.53ZM9.35,46.8c1.52-.45,3.2-.84,4.99-1.16.35.61.75,1.19,1.2,1.74l1.3,1.58c2.5,3.05,6.21,4.81,10.17,4.81,3.02,0,5.98-1.05,8.32-2.97l6.42-5.26c2.02.34,3.9.77,5.59,1.27,5.33,1.58,7.23,3.46,7.23,4.69s-1.9,3.12-7.23,4.69c-5.06,1.5-11.8,2.32-18.99,2.32s-13.93-.82-18.99-2.32c-5.33-1.58-7.23-3.46-7.23-4.69s1.9-3.11,7.23-4.69Z"/><path d="M32.81,20.48c.3-.22.62-.36.95-.42,1.56-.27,3.16-.19,4.74.24,0,0,.02,0,.03,0h0c.69.19,1.37.45,2.02.77,0,0,.02,0,.03.01l.06.03c.3.15.6.32.89.51l.11.07s.02.02.03.02c.24.16.47.32.73.52.02.02.05.04.08.06l.06.04c.25.21.5.43.75.66l.17.17c.28.28.5.52.7.76l.08.09c.35.44.88.68,1.44.68.15,0,.3-.02.45-.05.69-.17,1.23-.73,1.38-1.43.1-.51.38-.98.79-1.31l2.71-2.22c1.5-1.23,2.36-3.05,2.36-4.99,0-1.51-.51-2.92-1.46-4.08l-1.3-1.58c-1.21-1.48-3.01-2.34-4.94-2.36h-.06c-1.5,0-2.91.5-4.08,1.46l-9.92,8.12c-.61.5-1.11,1.1-1.51,1.79-.43.76-.27,1.73.38,2.31.65.58,1.63.63,2.34.11ZM32.94,17.91l9.91-8.12c.78-.64,1.72-.97,2.72-.98h.04c1.3.01,2.52.59,3.33,1.58l1.3,1.58c.64.78.98,1.72.98,2.74,0,1.31-.58,2.53-1.58,3.35h0l-2.71,2.22c-.65.53-1.13,1.24-1.39,2.03-.17-.2-.37-.4-.59-.63l-.19-.19c-.3-.29-.6-.55-.93-.82l-.06-.05s-.04-.03-.06-.05c-.31-.23-.59-.43-.85-.6-.01-.01-.03-.02-.05-.04l-.13-.08c-.36-.23-.73-.44-1.09-.62l-.08-.04s-.01,0-.02-.01c-.77-.38-1.57-.69-2.39-.91-.01,0-.02,0-.04-.01-1.89-.51-3.79-.6-5.66-.28-.26.04-.51.11-.76.2.1-.09.19-.18.3-.27Z"/><path d="M39.46,25.77l-.18-.13c-.18-.13-.37-.24-.57-.35-.08-.04-.19-.1-.33-.16h0s-.03-.01-.04-.02l-.25-.11c-.15-.06-.29-.11-.48-.18l-.11-.03c-.35-.11-.71-.19-1.06-.23-.66-.09-1.3-.08-1.91.03-.12.02-.24.03-.38.03-.79,0-1.49.52-1.74,1.27-.25.75,0,1.58.63,2.06,1.13.87,2.53,1.35,3.97,1.35.38,0,.72-.03,1.04-.09.01,0,.03,0,.04,0,.1-.02.22-.03.35-.03.78,0,1.47-.53,1.73-1.29.24-.74-.02-1.58-.64-2.06-.02-.02-.04-.03-.06-.04ZM36.98,27.17c-.71,0-1.42-.18-2.05-.51.38-.06.81-.06,1.23,0,.23.03.47.08.72.16l.09.03c.09.03.18.06.27.1.11.09.24.15.37.19-.19.03-.4.04-.63.05Z"/><path d="M22.01,44.72c1.22,1.5,3.05,2.36,4.99,2.36,1.5,0,2.91-.5,4.08-1.46l9.92-8.13c.6-.49,1.11-1.09,1.5-1.78h0c.44-.77.28-1.72-.38-2.31-.65-.58-1.63-.62-2.34-.11-.3.22-.62.36-.95.42-3.96.67-7.9-.84-10.39-3.88l-.08-.1c-.45-.55-1.2-.8-1.89-.63s-1.23.74-1.37,1.43c-.11.52-.39.98-.79,1.31l-2.71,2.22c-1.5,1.23-2.36,3.05-2.36,4.99,0,1.51.5,2.92,1.46,4.08l1.3,1.58ZM27,44.96c-.66,0-1.3-.15-1.87-.42,1.06-.04,2.13-.06,3.21-.06.21,0,.42,0,.62,0-.6.31-1.27.48-1.96.48ZM22.96,35.71l2.71-2.22c.65-.53,1.13-1.24,1.39-2.03,2.97,3.42,7.54,5.11,12.14,4.33.26-.04.51-.11.76-.21-.09.09-.19.19-.3.27l-8.02,6.57c-1.1-.04-2.2-.06-3.3-.06-1.79,0-3.6.06-5.39.17l-.6-.73c-.64-.78-.98-1.73-.98-2.74,0-1.31.58-2.53,1.58-3.35Z"/></svg>
