<svg xmlns="http://www.w3.org/2000/svg" viewBox="0 0 63.98 45.29" fill="currentColor"><path d="M62.56,1.41c-.91-.91-2.12-1.41-3.41-1.41H4.82c-1.28,0-2.49.5-3.41,1.42-.91.91-1.41,2.12-1.41,3.41v35.64c0,1.28.5,2.49,1.41,3.41.91.91,2.12,1.41,3.4,1.41h54.34c1.28,0,2.49-.5,3.41-1.41.91-.91,1.41-2.12,1.41-3.41V4.82c0-1.28-.5-2.49-1.41-3.41,0,0,0,0,0,0ZM61.38,40.46c0,.59-.23,1.15-.65,1.57-.42.42-.98.65-1.57.65H4.82c-.59,0-1.15-.23-1.57-.65-.42-.42-.65-.98-.66-1.57V4.82c0-.59.23-1.15.65-1.57.42-.42.98-.65,1.57-.65h54.34c.59,0,1.15.23,1.57.65.42.42.65.98.65,1.57v35.64Z"/><path d="M44.99,21.67l-12.23-7.74h0s-8.36-5.29-8.36-5.29c-.4-.25-.9-.27-1.32-.04-.41.23-.67.66-.68,1.13l-.14,25.83c0,.47.25.91.66,1.14.2.11.42.17.63.17.24,0,.48-.07.68-.19l20.72-12.81c.38-.24.61-.65.62-1.1,0-.45-.22-.86-.61-1.1ZM24.89,33.24l.11-21.14,16.85,10.66-16.96,10.48Z"/></svg>
