<svg xmlns="http://www.w3.org/2000/svg" viewBox="0 0 57.95 64.18" fill="currentColor"><path d="M0,50.72c0,4.62,1.09,7.91,3.33,10.08,2.9,2.79,7.4,3.38,12.76,3.38,1.85,0,3.81-.07,5.84-.14,2.27-.08,4.62-.17,7.04-.17,1.88,0,3.73.04,5.51.07,8.5.17,15.84.31,20-3.76,2.33-2.28,3.46-5.69,3.46-10.4,0-11.25-6.99-26.18-18.29-30.67-.13-.05-.27-.08-.41-.08h-20.54c-.14,0-.28.03-.41.08C7.35,23.45,0,38.96,0,50.72ZM18.92,21.27h20.11c9.21,3.8,16.68,16.52,16.68,28.5,0,4.08-.91,6.96-2.79,8.8-3.49,3.42-10.39,3.28-18.38,3.12-1.8-.04-3.65-.07-5.56-.07-2.47,0-4.83.09-7.12.17-7.38.26-13.75.49-16.96-2.61-1.78-1.72-2.64-4.49-2.64-8.46,0-13.55,8.59-26.09,16.68-29.45Z"/><path d="M20.06,16.99h17.6c.31,0,.61-.13.82-.36,3.27-3.5,5.23-10.63,5.23-15.51,0-.62-.5-1.12-1.12-1.12H15.13c-.62,0-1.12.5-1.12,1.12,0,4.88,1.96,12.02,5.23,15.51.21.23.51.36.82.36ZM41.42,2.24c-.25,4.12-1.83,9.59-4.27,12.5h-16.59c-2.44-2.91-4.02-8.39-4.27-12.5h25.13Z"/><path d="M20.73,50.7c1.7,1.05,4.19,1.48,5.6,1.65v2.26c0,.62.5,1.12,1.12,1.12h3.44c.3,0,.58-.12.79-.33.21-.21.33-.5.33-.8v-2.61c2.68-.65,5.38-2.95,5.71-6.49h0c.41-4.43-2.54-6.23-3.13-6.55-.36-.19-.89-.4-1.56-.67-1.19-.47-2.81-1.12-3.98-1.87-.45-.29-.61-.71-.54-.99.09-.34.55-.43.83-.45,2.02-.14,5.14.89,5.17.9.3.1.63.07.91-.09.28-.16.47-.42.54-.73l.83-3.69c.1-.46-.09-.94-.49-1.19-1.07-.69-3.07-1.03-4.33-1.19v-2c0-.62-.5-1.12-1.12-1.12h-3.44c-.62,0-1.12.5-1.12,1.12v2.56c-4,1.14-5.95,3.85-5.5,7.73.5,4.26,6.14,6.08,7.26,6.4,2.34.67,2.25,1.06,2.13,1.59-.13.58-2.08.96-3.98.57-1.6-.33-3.03-1.09-3.04-1.1-.29-.16-.64-.18-.95-.05-.31.12-.55.38-.65.7l-1.3,4.02c-.16.49.04,1.03.48,1.3ZM23.3,47.27c.65.27,1.51.57,2.44.76,2.34.48,6.05.28,6.62-2.27.68-2.99-2.17-3.81-3.7-4.25-1.83-.52-5.37-2.14-5.65-4.5-.35-3,1.12-4.75,4.62-5.49.52-.11.89-.57.89-1.1v-2.32h1.2v1.89c0,.59.45,1.07,1.03,1.12,1.05.08,2.64.32,3.64.65l-.37,1.63c-1.25-.33-3.25-.77-4.85-.66-1.45.1-2.54.92-2.85,2.13-.32,1.27.28,2.65,1.51,3.43,1.35.86,3.09,1.56,4.36,2.06.56.22,1.09.44,1.35.57.37.2,2.23,1.34,1.95,4.35-.26,2.77-2.62,4.45-4.71,4.63-.58.05-1.03.54-1.03,1.12v2.43s-1.17,0-1.17,0v-2.16c0-.6-.47-1.09-1.07-1.12-.86-.04-3.16-.31-4.83-1.02l.62-1.91Z"/></svg>
